<?xml version="1.0" standalone="no"?>
<!DOCTYPE svg PUBLIC "-//W3C//DTD SVG 20010904//EN"
 "http://www.w3.org/TR/2001/REC-SVG-20010904/DTD/svg10.dtd">
<svg version="1.0" xmlns="http://www.w3.org/2000/svg"
 width="800.000000pt" height="800.000000pt" viewBox="0 0 800.000000 800.000000"
 preserveAspectRatio="xMidYMid meet">

<g transform="translate(0.000000,800.000000) scale(0.100000,-0.100000)"
fill="#ffffff" stroke="none">
<path d="M970 7005 c0 -15 1457 -2936 1507 -3022 14 -24 28 -43 32 -43 16 0
56 69 150 257 54 109 115 230 134 268 20 39 42 84 50 100 96 204 700 1395 707
1395 6 0 10 11 10 25 l0 25 -262 0 -263 -1 -104 -214 c-58 -118 -107 -215
-110 -215 -4 0 -106 200 -229 445 l-222 445 1900 0 1900 0 -110 -220 -110
-220 -913 -1 -912 0 -400 -805 c-220 -442 -448 -902 -507 -1021 -59 -120 -122
-247 -140 -283 -51 -101 -270 -543 -277 -558 -3 -7 260 -545 585 -1195 438
-876 596 -1182 609 -1182 20 0 -34 -106 1149 2264 476 953 866 1742 866 1752
0 18 -12 19 -282 18 l-283 0 -585 -1175 -585 -1174 -249 497 -248 498 451 902
451 903 786 2 787 3 248 495 c136 272 248 503 248 512 1 9 5 18 10 20 5 2 61
108 125 236 64 127 120 232 126 232 5 0 10 11 10 25 l0 25 -3025 0 c-2701 0
-3025 -2 -3025 -15z"/>
</g>
</svg>
